<?xml version="1.0" encoding="utf-8"?>
<svg version="1.1" xmlns="http://www.w3.org/2000/svg" xmlns:xlink="http://www.w3.org/1999/xlink" x="0px" y="0px" viewBox="0 0 500 80" style="enable-background:new 0 0 500 80;" xml:space="preserve">
	<path fill="#DAC68B" d="M30,76c-7.8,0-14.1-6.2-14.1-13.9c0-0.8,0.1-1.5,0.2-2.3l0.1-0.6l-0.5-0.3C8.5,55.3,4,48,4,40
		s4.5-15.3,11.7-18.9l0.5-0.3l-0.1-0.6c-0.1-0.8-0.2-1.5-0.2-2.3C15.9,10.2,22.2,4,30,4h440c7.8,0,14.1,6.2,14.1,13.9
		c0,0.8-0.1,1.5-0.2,2.3l-0.1,0.6l0.5,0.3C491.5,24.7,496,32,496,40s-4.5,15.3-11.7,18.9l-0.5,0.3l0.1,0.6c0.1,0.8,0.2,1.5,0.2,2.3
		c0,7.7-6.3,13.9-14.1,13.9H30z"/>
	<path fill="#902E1B" d="M500,40c0-8.8-4.5-16.8-11.9-21.4c0-0.2,0-0.5,0-0.7C488.1,8,480,0,470,0H30C20,0,11.9,8,11.9,17.9
		c0,0.2,0,0.5,0,0.7C4.5,23.2,0,31.2,0,40s4.5,16.8,11.9,21.4c0,0.2,0,0.5,0,0.7C11.9,72,20,80,30,80h440c10,0,18.1-8,18.1-17.9
		c0-0.2,0-0.5,0-0.7C495.5,56.8,500,48.8,500,40z M30,5.9c0.3,0,439.7,0,440,0c3.5,0,6.7,1.5,8.9,3.9H21.1
		C23.3,7.4,26.5,5.9,30,5.9z M474.2,56.4l0.8,4.9c0,0.3,0.1,0.6,0.1,0.8c0,2.5-1.8,4.5-4.2,4.9H29.1c-2.4-0.4-4.2-2.5-4.2-4.9
		c0-0.3,0-0.6,0.1-0.8l0.8-4.9c0.2-1.3-0.4-2.5-1.6-3.1L19.8,51c-4.2-2.1-6.8-6.4-6.8-11s2.6-8.9,6.8-11l4.4-2.3
		c1.2-0.6,1.8-1.9,1.6-3.1L25,18.7c0-0.3-0.1-0.6-0.1-0.8c0-2.8,2.3-5,5.1-5h440c2.8,0,5.1,2.3,5.1,5c0,0.3,0,0.6-0.1,0.8l-0.8,4.9
		c-0.2,1.3,0.4,2.5,1.6,3.1l4.4,2.3c4.2,2.1,6.8,6.4,6.8,11s-2.6,8.9-6.8,11l-4.4,2.3C474.6,53.9,474,55.1,474.2,56.4z M16.6,57.2
		C10.1,53.8,6,47.3,6,40s4.1-13.8,10.6-17.2l1.8-0.9l-0.3-2c-0.1-0.7-0.2-1.3-0.2-2c0-1.8,0.4-3.5,1.1-5h4.7
		c-1.1,1.4-1.8,3.1-1.8,5c0,0.4,0,0.9,0.1,1.3l0.8,4.9l-4.4,2.3C13.2,29,10,34.2,10,40s3.2,11,8.4,13.7l4.4,2.3L22,60.8
		c-0.1,0.4-0.1,0.9-0.1,1.3c0,1.9,0.7,3.6,1.7,4.9H19c-0.7-1.5-1.1-3.2-1.1-4.9c0-0.7,0.1-1.3,0.2-2l0.3-2L16.6,57.2z M470,74.1H30
		c-3.6,0-6.7-1.5-9-4H479C476.7,72.5,473.6,74.1,470,74.1z M483.4,57.2l-1.8,0.9l0.3,2c0.1,0.7,0.2,1.3,0.2,2
		c0,1.8-0.4,3.4-1.1,4.9h-4.6c1.1-1.4,1.7-3.1,1.7-4.9c0-0.4,0-0.9-0.1-1.3l-0.8-4.9l4.4-2.3c5.2-2.7,8.4-7.9,8.4-13.7
		s-3.2-11-8.4-13.7l-4.4-2.3l0.8-4.9c0.1-0.4,0.1-0.9,0.1-1.3c0-1.9-0.7-3.7-1.8-5h4.7c0.7,1.5,1.1,3.2,1.1,5c0,0.7-0.1,1.3-0.2,2
		l-0.3,2l1.8,0.9c6.5,3.3,10.6,9.9,10.6,17.2S489.9,53.8,483.4,57.2z"/>
</svg>
